P3 10 10 255
0 0 0
0 0 0
0 0 0
0 0 0
0 0 0
0 0 0
0 0 0
0 0 0
0 0 0
0 0 0
0 0 0
0 0 0
0 0 0
0 0 0
0 0 0
0 0 0
0 0 0
0 0 0
0 0 0
0 0 0
0 0 0
0 0 0
0 0 0
0 0 0
0 0 0
0 0 0
0 0 0
0 0 0
0 0 0
0 0 0
0 0 0
0 0 0
0 0 0
0 0 0
0 0 0
0 0 0
0 0 0
0 0 0
0 0 0
0 0 0
60 0 60
255 0 0
255 0 0
255 0 0
59 0 59
0 255 0
0 255 0
0 0 255
0 0 255
54 0 54
80 0 80
255 0 0
255 0 0
255 0 0
79 0 79
0 255 0
0 255 0
0 0 255
0 0 255
77 0 77
86 0 86
85 0 85
85 0 85
85 0 85
84 0 84
84 0 84
84 0 84
84 0 84
84 0 84
84 0 84
88 0 88
88 0 88
87 0 87
87 0 87
87 0 87
87 0 87
86 0 86
86 0 86
86 0 86
86 0 86
89 0 89
89 0 89
89 0 89
88 0 88
88 0 88
88 0 88
88 0 88
88 0 88
88 0 88
87 0 87
90 0 90
89 0 89
89 0 89
89 0 89
89 0 89
89 0 89
89 0 89
88 0 88
88 0 88
88 0 88
